<svg
  viewBox="0 0 1000 200"
  preserveAspectRatio="xMidYMid meet"
  xmlns="http://www.w3.org/2000/svg"
  role="img"
  aria-labelledby="title desc"
  class="logo"
>
  <title>Kleingärtner-Verein Köln-Mauenheim von 1921 e.V.</title>
  <desc>Logo mit Baum, Blumen und Familie im Querformat</desc>

  <rect width="100%" height="100%" fill="#F5F2EB" />

  <!-- Baum links -->
  <rect x="50" y="90" width="40" height="80" fill="#8B5A2B" rx="6" ry="6" />
  <circle cx="70" cy="70" r="40" fill="#228B22" />
  <circle cx="40" cy="90" r="25" fill="#2E8B57" />
  <circle cx="100" cy="90" r="25" fill="#2E8B57" />

  <!-- Blumen/Büsche vorne, jetzt detailreicher -->
  <!-- Blume 1 -->
  <circle cx="180" cy="160" r="18" fill="#FF69B4" />
  <circle cx="180" cy="160" r="8" fill="#FFF0F5" />
  <circle cx="180" cy="160" r="4" fill="#FF1493" />
  <!-- Blume 2 -->
  <ellipse cx="220" cy="170" rx="14" ry="10" fill="#DB7093" />
  <circle cx="220" cy="170" r="6" fill="#FFF0F5" />
  <!-- Busch -->
  <ellipse cx="260" cy="155" rx="25" ry="15" fill="#228B22" />
  <ellipse cx="250" cy="150" rx="15" ry="10" fill="#2E8B57" />
  <ellipse cx="280" cy="160" rx="18" ry="12" fill="#2E8B57" />

  <!-- Familie - zwei Figuren rechts -->
  <!-- Große Figur -->
  <circle cx="800" cy="110" r="25" fill="#D2B48C" />
  <rect x="785" y="135" width="30" height="50" rx="15" ry="15" fill="#A0522D" />
  <!-- Kleine Figur -->
  <circle cx="850" cy="140" r="15" fill="#DEB887" />
  <rect x="840" y="155" width="20" height="35" rx="10" ry="10" fill="#CD853F" />

  <!-- Text links -->
  <text x="300" y="50" font-family="Georgia, serif" font-size="22" fill="#556B2F" font-weight="700">
    Kleingärtner-Verein
  </text>
  <text x="300" y="85" font-family="Georgia, serif" font-size="18" fill="#6B8E23" font-weight="600">
    Köln-Mauenheim von 1921 e.V.
  </text>
</svg>
